<svg xmlns="http://www.w3.org/2000/svg" xmlns:xlink="http://www.w3.org/1999/xlink" version="1.1" id="Layer_1" x="0px" y="0px" width="100%" viewBox="0 0 1024 672" enable-background="new 0 0 1024 672" xml:space="preserve">
<path fill="#14452f" opacity="1.000000" stroke="none" d=" M612.204834,343.302795   C620.289673,340.603180 623.572754,334.019531 624.234680,327.096130   C625.212036,316.873413 625.497070,306.336029 624.121277,296.198029   C622.291748,282.716827 615.549744,278.306519 600.668579,277.489807   C588.709229,276.833527 576.684570,277.367706 564.688904,277.373291   C562.713928,277.374207 560.738892,277.373383 556.804016,277.373383   C577.569458,241.452820 597.634888,206.743179 617.700317,172.033539   C618.208252,172.285965 618.716187,172.538406 619.224182,172.790833   C616.544861,179.086670 613.879761,185.388596 611.182983,191.676971   C606.599976,202.363449 602.043091,213.061584 597.378784,223.712631   C595.600525,227.773331 597.010010,229.053040 601.131775,229.028625   C612.415771,228.961731 623.707214,229.292679 634.611328,232.596252   C653.765869,238.399353 668.053528,249.726334 675.413025,268.907806   C679.574036,279.752960 681.396973,290.997253 681.263733,302.506470   C681.140991,313.108337 682.082336,323.701843 679.651672,334.309845   C676.382996,348.574799 668.908813,359.093201 655.756165,365.587372   C654.033325,366.438049 651.883545,366.766144 650.792786,368.738403   C651.334045,371.104858 653.578308,370.931000 655.143250,371.478394   C673.102051,377.760223 682.509216,390.223145 684.476929,408.980621   C685.856689,422.133392 685.573608,435.273956 685.170410,448.374146   C684.579956,467.559570 679.815308,485.534271 665.106812,499.282867   C654.293823,509.390137 641.217834,515.311218 626.614868,516.225952   C584.207886,518.882202 541.728027,516.825378 499.281586,517.298218   C492.298187,517.376038 489.679962,514.199463 489.669891,506.301453   C489.630981,475.812500 489.653809,445.323425 489.652893,414.834412   C489.652252,392.558014 489.849396,392.674835 501.234344,373.409637   C513.835693,352.086182 526.007751,330.509277 538.413513,309.069763   C540.787842,304.966400 543.379028,300.988495 546.205139,296.410004   C547.753479,298.702820 547.318054,300.547668 547.323792,302.244537   C547.366089,314.739899 547.449036,327.236694 547.296631,339.730286   C547.244446,344.011292 548.897156,345.734711 553.180176,345.705719   C569.340271,345.596344 585.501526,345.653534 601.662354,345.669678   C605.228943,345.673248 608.462341,344.238068 612.204834,343.302795  M627.005920,457.349152   C631.806091,443.226624 630.151611,428.567841 629.191406,414.305267   C628.303894,401.122223 624.102722,394.054352 605.476074,393.422211   C588.181519,392.835266 570.858521,393.128448 553.550659,392.864502   C549.018616,392.795410 547.289673,394.645355 547.309448,399.093414   C547.404358,420.403351 547.415100,441.714325 547.302063,463.024078   C547.277039,467.748260 549.374939,469.684387 553.900146,469.674927   C570.548767,469.640076 587.210876,470.057220 603.840942,469.500031   C612.847656,469.198273 621.852966,467.374268 627.005920,457.349152  z"/>
<path fill="#14452f" opacity="1.000000" stroke="none" d=" M535.287842,260.000061   C535.290222,270.329376 535.148743,280.161774 535.359924,289.986572   C535.452576,294.297577 534.416992,297.897156 532.180298,301.663086   C522.511230,317.942719 513.245789,334.461609 503.771332,350.857483   C487.474518,379.059692 471.118347,407.227631 454.811615,435.424133   C440.946625,459.398560 427.130249,483.401184 413.242493,507.362396   C412.181946,509.192169 411.408356,511.293671 409.451538,512.635010   C408.687347,510.580475 409.889526,508.997772 410.573425,507.406769   C417.065063,492.304382 423.609314,477.224487 430.186035,462.158905   C432.430115,457.018188 431.603577,455.410095 425.994415,455.426544   C413.177124,455.464142 400.435303,455.384125 387.983551,451.517670   C367.331024,445.104736 353.237915,432.214355 346.532257,411.374146   C343.084076,400.657715 341.989807,389.665283 341.735504,378.564087   C341.464691,366.741821 341.637970,354.908295 341.690826,343.080048   C341.734985,333.193054 345.066345,329.748993 354.751984,329.681824   C365.746857,329.605560 376.743225,329.619965 387.738098,329.703583   C395.455017,329.762238 399.865265,332.540405 399.471863,341.337860   C398.951447,352.976562 399.295135,364.656250 399.362427,376.317749   C399.390228,381.131989 400.027863,385.910797 401.282074,390.559204   C403.580444,399.077728 409.604614,403.789490 418.393707,404.720856   C432.164062,406.180145 445.904694,406.208191 459.662872,404.687927   C467.846771,403.783630 473.452972,399.282867 475.787750,391.291565   C477.092102,386.827057 477.674988,382.228699 477.673065,377.541077   C477.645691,311.567993 477.653625,245.594925 477.656433,179.621841   C477.656860,169.212936 480.134125,166.714371 490.638885,166.671982   C501.301056,166.628937 511.963776,166.611420 522.625732,166.675308   C532.566162,166.734879 535.288513,169.566330 535.286865,179.533707   C535.282471,206.189148 535.286621,232.844589 535.287842,260.000061  z"/>
</svg>